HIERARCHY
ROOT root
{
	OFFSET 0.000000 0.000000 0.000000
	CHANNELS 6 Xposition Yposition Zposition Zrotation Yrotation Xrotation
	JOINT lhip
	{
		OFFSET 0.058581 -0.082280 -0.017664
		CHANNELS 3 Zrotation Yrotation Xrotation
		JOINT lknee
		{
			OFFSET 0.043451 -0.386469 0.008037
			CHANNELS 3 Zrotation Yrotation Xrotation
			JOINT lankle
			{
				OFFSET -0.014790 -0.426874 -0.037428
				CHANNELS 3 Zrotation Yrotation Xrotation
				JOINT ltoe
				{
					OFFSET 0.041054 -0.060286 0.122042
					CHANNELS 3 Zrotation Yrotation Xrotation
					End Site
					{
						OFFSET 0.000000 0.000000 0.000000
					}
				}
			}
		}
	}
	JOINT rhip
	{
		OFFSET -0.060310 -0.090513 -0.013543
		CHANNELS 3 Zrotation Yrotation Xrotation
		JOINT rknee
		{
			OFFSET -0.043257 -0.383688 -0.004843
			CHANNELS 3 Zrotation Yrotation Xrotation
			JOINT rankle
			{
				OFFSET 0.019056 -0.420046 -0.034562
				CHANNELS 3 Zrotation Yrotation Xrotation
				JOINT rtoe
				{
					OFFSET -0.034840 -0.062106 0.130323
					CHANNELS 3 Zrotation Yrotation Xrotation
					End Site
					{
						OFFSET 0.000000 0.000000 0.000000
					}
				}
			}
		}
	}
	JOINT lowerback
	{
		OFFSET 0.004439 0.124404 -0.038385
		CHANNELS 3 Zrotation Yrotation Xrotation
		JOINT upperback
		{
			OFFSET 0.004488 0.137956 0.026820
			CHANNELS 3 Zrotation Yrotation Xrotation
			JOINT chest
			{
				OFFSET -0.002265 0.056032 0.002855
				CHANNELS 3 Zrotation Yrotation Xrotation
				JOINT lowerneck
				{
					OFFSET -0.013390 0.211636 -0.033468
					CHANNELS 3 Zrotation Yrotation Xrotation
					JOINT upperneck
					{
						OFFSET 0.010113 0.088937 0.050410
						CHANNELS 3 Zrotation Yrotation Xrotation
						End Site
						{
							OFFSET 0.000000 0.000000 0.000000
						}
					}
				}
				JOINT lclavicle
				{
					OFFSET 0.071702 0.114000 -0.018898
					CHANNELS 3 Zrotation Yrotation Xrotation
					JOINT lshoulder
					{
						OFFSET 0.122921 0.045205 -0.019046
						CHANNELS 3 Zrotation Yrotation Xrotation
						JOINT lelbow
						{
							OFFSET 0.255332 -0.015649 -0.022946
							CHANNELS 3 Zrotation Yrotation Xrotation
							JOINT lwrist
							{
								OFFSET 0.265709 0.012698 -0.007375
								CHANNELS 3 Zrotation Yrotation Xrotation
								End Site
								{
									OFFSET 0.000000 0.000000 0.000000
								}
							}
						}
					}
				}
				JOINT rclavicle
				{
					OFFSET -0.082954 0.112472 -0.023707
					CHANNELS 3 Zrotation Yrotation Xrotation
					JOINT rshoulder
					{
						OFFSET -0.113228 0.046853 -0.008472
						CHANNELS 3 Zrotation Yrotation Xrotation
						JOINT relbow
						{
							OFFSET -0.260127 -0.014369 -0.031269
							CHANNELS 3 Zrotation Yrotation Xrotation
							JOINT rwrist
							{
								OFFSET -0.269108 0.006794 -0.006027
								CHANNELS 3 Zrotation Yrotation Xrotation
								End Site
								{
									OFFSET 0.000000 0.000000 0.000000
								}
							}
						}
					}
				}
			}
		}
	}
}
MOTION
Frames: 5
Frame Time: 0.033333
-0.065693 0.222404 0.984733 71.677953 4.626790 83.042683 13.589845 10.984406 -9.030408 -2.550333 8.295317 33.124870 -4.182361 11.710801 -15.144362 0.000000 -0.000000 0.000000 6.794070 1.562318 -13.550341 1.279135 4.041468 28.000398 4.424588 -4.705233 -9.157771 0.000000 -0.000000 0.000000 -8.585046 -7.848088 27.927180 -6.783881 -14.629151 3.405030 -1.265451 -8.713466 1.252515 -7.678709 19.533169 6.463933 7.510356 37.217017 10.669842 -14.747717 -43.815242 -2.318942 -33.046544 -42.567844 12.761228 6.087241 -57.250223 -19.235822 30.960631 -8.487965 -37.843522 -7.680630 23.312823 -14.926069 20.117593 29.961844 7.519105 -17.220277 72.004005 -20.575376 -9.816827 7.401184 -32.916759 
-0.065103 0.221869 0.985619 71.164704 4.711762 83.352395 13.599717 11.017943 -9.135227 -2.223936 8.636848 32.975100 -4.208894 11.765174 -15.073271 0.000000 -0.000000 0.000000 6.926877 1.948929 -13.664247 1.414218 4.118038 27.616835 4.765494 -4.951960 -8.771148 0.000000 -0.000000 0.000000 -8.954460 -8.071210 27.692954 -6.814040 -15.001445 2.804643 -1.337313 -8.912857 1.530746 -7.499561 20.098233 6.507246 7.873956 38.075470 10.712494 -14.343162 -44.302896 -2.686173 -32.776446 -43.436298 12.624037 5.308207 -56.972545 -19.538163 31.340236 -8.776168 -36.937233 -8.396555 22.658028 -15.470074 19.566159 29.796049 7.348934 -17.807069 72.277391 -21.575575 -9.819621 7.410268 -32.924288 
-0.064822 0.221791 0.986121 71.202788 4.715673 83.549666 13.472400 10.705978 -9.362114 -2.200749 8.601870 32.981788 -4.198365 12.022170 -15.059534 0.000000 -0.000000 0.000000 6.898279 2.066942 -13.806022 1.446879 4.061455 27.528259 4.892305 -5.052839 -8.757248 0.000000 -0.000000 0.000000 -9.142656 -8.105761 27.437663 -6.847331 -15.276464 2.738598 -1.317040 -9.140666 1.558934 -7.396592 20.283557 6.681884 8.034500 38.553608 10.513239 -14.204505 -44.642520 -2.632660 -32.857752 -43.890111 12.733325 5.777349 -56.896581 -20.599898 31.762233 -8.487741 -37.470139 -8.965298 22.314756 -15.707928 19.427961 29.573186 7.369604 -18.504449 72.395710 -22.288106 -9.787524 7.329403 -33.399040 
-0.063924 0.222427 0.985746 71.600493 4.671020 83.544010 13.309255 10.592963 -9.453529 -2.162983 8.499665 33.067473 -4.056314 11.887872 -15.036480 0.000000 -0.000000 0.000000 6.734709 1.896628 -13.877510 1.428230 3.920297 27.819108 4.951810 -5.122112 -8.949786 0.000000 -0.000000 0.000000 -9.077765 -8.116140 27.279047 -6.945269 -15.188872 2.717124 -1.436079 -9.261329 1.825725 -7.342394 19.953192 6.643460 8.136682 38.601563 10.345968 -14.425187 -44.338051 -2.508767 -33.596734 -44.082633 12.947756 5.859332 -57.214276 -20.501038 31.585744 -7.996999 -37.800722 -9.154949 21.897050 -15.790687 19.744958 29.731606 7.424132 -18.140891 72.444009 -22.205663 -9.764284 7.115955 -33.888846 
-0.063570 0.223035 0.985215 72.152467 4.630680 83.360496 13.239605 10.467859 -9.404052 -2.278915 8.260279 33.198704 -4.025915 11.680949 -15.185185 0.000000 -0.000000 0.000000 6.581798 1.700632 -13.748573 1.341197 3.624322 28.086184 4.906926 -5.124345 -9.222283 0.000000 -0.000000 0.000000 -9.061908 -8.124400 27.345928 -7.016213 -15.249699 3.099931 -1.394425 -9.014197 1.667764 -7.038846 19.740749 6.626344 8.127631 38.199874 10.400703 -14.265051 -44.014755 -2.616285 -34.409703 -43.578332 13.442306 6.492127 -57.612026 -21.177585 31.502077 -7.719567 -38.578634 -9.098077 22.047728 -15.849156 20.330207 29.693439 7.783475 -18.029042 72.335325 -22.296971 -9.259707 7.119620 -34.068374 
